<svg width="784" height="784" viewBox="0 0 784 784" fill="none" xmlns="http://www.w3.org/2000/svg">
<circle cx="392" cy="392" r="392" fill="#3D3D3D"/>
<circle cx="391.5" cy="472.5" r="101.5" fill="black"/>
<path d="M553 371C553 387.569 539.569 401 523 401C506.431 401 493 387.569 493 371C493 354.431 506.431 341 523 341C539.569 341 553 354.431 553 371Z" fill="#CA2626"/>
<path d="M242.542 111.981H273.753C276.437 111.981 278.872 112.646 281.058 113.974C283.272 115.274 285.029 117.017 286.329 119.203C287.657 121.389 288.321 123.824 288.321 126.508V132.401C288.321 135.085 287.671 137.506 286.371 139.665C285.098 141.823 283.355 143.538 281.141 144.811C278.928 146.084 276.451 146.72 273.712 146.72L291.31 171H280.643L263.045 146.72H256.28V138.004H273.753C275.386 138.004 276.769 137.451 277.904 136.344C279.038 135.21 279.605 133.854 279.605 132.277V126.508C279.605 124.903 279.038 123.533 277.904 122.399C276.769 121.264 275.386 120.697 273.753 120.697H251.3V171H242.542V111.981ZM298.822 136.884C298.822 134.421 299.721 132.332 301.52 130.617C303.318 128.874 305.476 128.002 307.994 128.002H325.924C328.22 128.002 330.296 128.569 332.149 129.704C334.031 130.81 335.525 132.318 336.632 134.228C337.766 136.109 338.333 138.198 338.333 140.495V141.698C338.333 143.967 337.766 146.042 336.632 147.924C335.525 149.778 334.031 151.272 332.149 152.406C330.296 153.513 328.22 154.066 325.924 154.066H312.56V145.351H326.007C327.003 145.351 327.847 144.991 328.539 144.271C329.258 143.552 329.618 142.681 329.618 141.657V140.495C329.618 139.443 329.258 138.558 328.539 137.838C327.847 137.119 327.003 136.759 326.007 136.759H307.579V158.839C307.579 159.78 307.897 160.583 308.534 161.247C309.17 161.911 309.945 162.243 310.858 162.243H335.304V171H310.858C308.644 171 306.625 170.46 304.798 169.381C302.972 168.275 301.52 166.808 300.44 164.982C299.361 163.128 298.822 161.094 298.822 158.881V136.884ZM347.879 136.759C347.879 134.352 348.737 132.291 350.453 130.575C352.168 128.86 354.243 128.002 356.678 128.002H369.793C373.335 128.002 376.24 129.109 378.509 131.322C380.723 129.109 383.628 128.002 387.225 128.002H393.7C396.55 128.002 399.151 128.708 401.502 130.119C403.854 131.502 405.722 133.37 407.105 135.722C408.517 138.046 409.222 140.633 409.222 143.483V171H400.506V143.607C400.506 141.698 399.842 140.08 398.514 138.751C397.186 137.396 395.581 136.718 393.7 136.718H387.225C386.008 136.718 384.97 137.105 384.112 137.88C383.255 138.627 382.826 139.54 382.826 140.619V171H374.068V140.619C374.068 139.54 373.653 138.627 372.823 137.88C371.993 137.105 370.983 136.718 369.793 136.718H356.637V171H347.879V136.759ZM418.768 143.524C418.768 140.674 419.46 138.074 420.843 135.722C422.254 133.37 424.136 131.502 426.488 130.119C428.84 128.708 431.441 128.002 434.291 128.002H443.67C446.52 128.002 449.121 128.708 451.473 130.119C453.825 131.502 455.693 133.37 457.076 135.722C458.487 138.074 459.193 140.674 459.193 143.524V155.478C459.193 158.327 458.487 160.928 457.076 163.28C455.693 165.632 453.825 167.514 451.473 168.925C449.121 170.308 446.52 171 443.67 171H434.291C431.441 171 428.84 170.308 426.488 168.925C424.136 167.514 422.254 165.632 420.843 163.28C419.46 160.928 418.768 158.327 418.768 155.478V143.524ZM427.525 155.395C427.525 157.276 428.189 158.895 429.518 160.25C430.846 161.579 432.437 162.243 434.291 162.243H443.67C445.552 162.243 447.143 161.579 448.443 160.25C449.771 158.895 450.436 157.276 450.436 155.395V143.607C450.436 141.726 449.771 140.121 448.443 138.793C447.143 137.437 445.552 136.759 443.67 136.759H434.291C432.437 136.759 430.846 137.437 429.518 138.793C428.189 140.121 427.525 141.726 427.525 143.607V155.395ZM466.664 128.002H472.267V111.981H481.024V128.002H494.264V136.759H481.024V158.798C481.024 159.739 481.384 160.555 482.103 161.247C482.85 161.911 483.736 162.243 484.759 162.243H494.264V171H484.635C482.366 171 480.291 170.46 478.409 169.381C476.555 168.275 475.061 166.808 473.927 164.982C472.82 163.128 472.267 161.081 472.267 158.839V136.759H466.664V128.002ZM502.191 136.884C502.191 134.421 503.09 132.332 504.889 130.617C506.687 128.874 508.845 128.002 511.363 128.002H529.293C531.59 128.002 533.665 128.569 535.519 129.704C537.4 130.81 538.894 132.318 540.001 134.228C541.135 136.109 541.703 138.198 541.703 140.495V141.698C541.703 143.967 541.135 146.042 540.001 147.924C538.894 149.778 537.4 151.272 535.519 152.406C533.665 153.513 531.59 154.066 529.293 154.066H515.929V145.351H529.376C530.372 145.351 531.216 144.991 531.908 144.271C532.627 143.552 532.987 142.681 532.987 141.657V140.495C532.987 139.443 532.627 138.558 531.908 137.838C531.216 137.119 530.372 136.759 529.376 136.759H510.948V158.839C510.948 159.78 511.266 160.583 511.903 161.247C512.539 161.911 513.314 162.243 514.227 162.243H538.673V171H514.227C512.014 171 509.994 170.46 508.167 169.381C506.341 168.275 504.889 166.808 503.81 164.982C502.73 163.128 502.191 161.094 502.191 158.881V136.884ZM235.155 215.981L242.875 260.474L253.5 241.133H261.759L272.384 260.474L280.104 215.981H288.861L278.609 275H270.724L257.608 251.26L244.535 275H236.607L226.356 215.981H235.155ZM296.747 240.884C296.747 238.421 297.646 236.332 299.444 234.617C301.243 232.874 303.401 232.002 305.919 232.002H323.849C326.145 232.002 328.22 232.569 330.074 233.704C331.956 234.81 333.45 236.318 334.557 238.228C335.691 240.109 336.258 242.198 336.258 244.495V245.698C336.258 247.967 335.691 250.042 334.557 251.924C333.45 253.778 331.956 255.272 330.074 256.406C328.22 257.513 326.145 258.066 323.849 258.066H310.484V249.351H323.932C324.928 249.351 325.772 248.991 326.463 248.271C327.183 247.552 327.542 246.681 327.542 245.657V244.495C327.542 243.443 327.183 242.558 326.463 241.838C325.772 241.119 324.928 240.759 323.932 240.759H305.504V262.839C305.504 263.78 305.822 264.583 306.458 265.247C307.095 265.911 307.87 266.243 308.783 266.243H333.229V275H308.783C306.569 275 304.549 274.46 302.723 273.381C300.897 272.275 299.444 270.808 298.365 268.982C297.286 267.128 296.747 265.094 296.747 262.881V240.884ZM345.389 215.981H354.146V266.243H369.378C371.26 266.243 372.851 265.579 374.151 264.25C375.479 262.922 376.144 261.331 376.144 259.478V247.607C376.144 245.726 375.479 244.121 374.151 242.793C372.851 241.437 371.26 240.759 369.378 240.759H359.127V232.002H369.378C372.228 232.002 374.829 232.708 377.181 234.119C379.533 235.502 381.401 237.37 382.784 239.722C384.195 242.074 384.901 244.674 384.901 247.524V259.561C384.901 262.383 384.195 264.97 382.784 267.322C381.401 269.646 379.533 271.514 377.181 272.925C374.829 274.308 372.228 275 369.378 275H354.146C351.739 275 349.678 274.142 347.962 272.427C346.247 270.711 345.389 268.65 345.389 266.243V215.981ZM394.447 247.524C394.447 244.674 395.166 242.074 396.605 239.722C398.044 237.37 399.967 235.502 402.374 234.119C404.781 232.708 407.451 232.002 410.384 232.002H434.581V240.759H410.384C408.42 240.759 406.732 241.437 405.321 242.793C403.91 244.121 403.204 245.74 403.204 247.649V259.312C403.204 261.221 403.896 262.853 405.279 264.209C406.69 265.565 408.392 266.243 410.384 266.243H434.581V275H410.384C407.451 275 404.781 274.294 402.374 272.883C399.967 271.472 398.044 269.591 396.605 267.239C395.166 264.859 394.447 262.244 394.447 259.395V247.524ZM443.753 247.441C443.753 244.591 444.445 242.004 445.829 239.68C447.24 237.356 449.121 235.502 451.473 234.119C453.825 232.708 456.426 232.002 459.276 232.002H483.265V275H474.508V240.759H459.276C457.422 240.759 455.831 241.423 454.503 242.751C453.175 244.052 452.511 245.643 452.511 247.524V259.395C452.511 261.276 453.175 262.895 454.503 264.25C455.831 265.579 457.422 266.243 459.276 266.243H469.527V275H459.276C456.426 275 453.825 274.308 451.473 272.925C449.121 271.514 447.24 269.632 445.829 267.28C444.445 264.928 443.753 262.327 443.753 259.478V247.441ZM493.226 240.759C493.226 238.352 494.084 236.291 495.799 234.575C497.515 232.86 499.59 232.002 502.025 232.002H515.14C518.682 232.002 521.587 233.109 523.856 235.322C526.069 233.109 528.975 232.002 532.572 232.002H539.046C541.896 232.002 544.497 232.708 546.849 234.119C549.201 235.502 551.069 237.37 552.452 239.722C553.863 242.046 554.569 244.633 554.569 247.483V275H545.853V247.607C545.853 245.698 545.189 244.08 543.861 242.751C542.533 241.396 540.928 240.718 539.046 240.718H532.572C531.354 240.718 530.317 241.105 529.459 241.88C528.601 242.627 528.172 243.54 528.172 244.619V275H519.415V244.619C519.415 243.54 519 242.627 518.17 241.88C517.34 241.105 516.33 240.718 515.14 240.718H501.983V275H493.226V240.759Z" fill="white"/>
<circle cx="392" cy="472" r="66" fill="#242424"/>
<circle cx="395.873" cy="474.422" r="37.5" transform="rotate(7.81615 395.873 474.422)" fill="white"/>
<circle cx="391.5" cy="472.5" r="38.5" fill="black"/>
<circle cx="377" cy="459" r="15" fill="white"/>
</svg>
